<svg xmlns="http://www.w3.org/2000/svg" viewBox="0 0 49.35 47.71"><defs><style>.cls-1{fill:#fff;}</style></defs><g id="Layer_2" data-name="Layer 2"><g id="Layer_1-2" data-name="Layer 1"><g id="astronaut-helmet"><path class="cls-1" d="M16.06,29.84c.21-.08.25-.12.25-.5s-.42-.29-1.17-1.12a7.58,7.58,0,0,1-1.92-4.83C13,20.77,15.35,18,15.76,17.22s0-1.68-.54-1.67c-6.33.21-7,5.5-7.13,6.79S8,27.26,10.38,28.88A7.79,7.79,0,0,0,16.06,29.84ZM10.19,19.68c.67-1.33,1.63-2.83,3.63-3.12.46-.07.75.29.54.46s-2.71,3-2.58,6,.88,4.33,1.36,4.82.71.71.58.83a4.73,4.73,0,0,1-3.79-2.21C8.66,24.48,9.52,21,10.19,19.68Zm24.67-3.37c.13,0,.21-.17.21-.42a4.32,4.32,0,0,0-1.87-1.37.47.47,0,0,0-.19.64l0,0a12.52,12.52,0,0,0,1.82,1.12Zm-1.37,3.13c.17.08,3.5,1.75,3.63,1.75s.13-.25.13-.5a18.76,18.76,0,0,0-3.71-2.08c-.23,0-.23.74-.06.82Zm0,2.83c.21.21,3.83,2.29,4,2.33s.08-.33.08-.58a23.55,23.55,0,0,0-3.83-2.5c-.14,0-.47.54-.26.75Zm.08,2.33s-.33.58-.29.79a45.27,45.27,0,0,0,3.88,2.38s.29-.33.25-.54a23,23,0,0,0-3.85-2.63Zm3.17,6.67c.17.08.21-.29.29-.46a55.13,55.13,0,0,0-4.5-3.21s-.46.54-.46.71,4.49,2.87,4.66,3Zm-1.58,2.46a2.33,2.33,0,0,0,.46-.37,30.38,30.38,0,0,0-4-3.25c-.25,0-.54.29-.5.5s4,3.12,4,3.12ZM30,32.14a1,1,0,0,0-.46.58A30.63,30.63,0,0,0,33,35.3a2.33,2.33,0,0,0,.46-.37A18,18,0,0,0,30,32.14ZM22,16.6c.13.08-.71,1.17-.71,1.17s.33.5.46.5a2.19,2.19,0,0,0,.75-.67c.08-.17.58.71.58.71l.63-.25a10.32,10.32,0,0,1-.46-1.46c0-.25,1.42,0,1.42,0a.91.91,0,0,0,.17-.42c0-.17-.42-.42-.42-.42s.21-.58.08-.75-1.29.46-1.29.46-.08-1-.08-1.21-.29-.21-.58-.12-.37,1.5-.37,1.5a3.08,3.08,0,0,0-1-.08.88.88,0,0,0-.21.58C21,16.31,21.89,16.52,22,16.6Zm5.45,13s.2.3.27.3a1.49,1.49,0,0,0,.44-.39c0-.1.34.42.34.42l.37-.15a5.77,5.77,0,0,1-.23-.84c0-.15.84,0,.84,0a.69.69,0,0,0,.1-.25c0-.1-.25-.25-.25-.25s.12-.34,0-.44-.76.27-.76.27v-.71c0-.09-.17-.12-.34-.07s-.22.89-.22.89a1.94,1.94,0,0,0-.59,0,.54.54,0,0,0-.12.34c0,.1.54.22.62.27s-.47.64-.47.64ZM15.84,31.9s-.12.46-.17.58-.5-.08-.67-.12-.17.25-.17.5.83.42.83.42L15,34a6.62,6.62,0,0,0,.71.46c.13,0,.46-.54.46-.54l.58.79h.42L17,33.74h.67a1.89,1.89,0,0,0,0-.75c-.08-.21-1-.21-1-.21s-.17-1-.37-1.08-.33.14-.5.23Zm5.07-6.17s.25.92.5.92h.5l-.12-1s.63-.12,1-.17,0-.37,0-.54-.83-.08-1.12-.08-.21-.67-.21-.79-.71.21-.87.29v.58h-.37v.42c0,.13.69.41.69.41Zm7.75-4.5s.25.92.5.92h.5l-.12-1s.63-.12,1-.17,0-.37,0-.54-.83-.08-1.12-.08-.21-.67-.21-.79-.71.21-.87.29v.58H28v.42C28,21,28.66,21.23,28.66,21.23Zm-5.88,9.9c-.08-.21-.58-.17-.75-.08a1.9,1.9,0,0,0-.12,1c0,.25-.21.13-.5.33s0,.88,0,.88l.79.33.38-.54a3.66,3.66,0,0,1,.38.5c.08.17.75-.29.75-.29l.35-.42-.58-1.21s-.59-.3-.67-.51ZM47.94,6s1.75-3.79-.71-4.58S43.31,2.27,43.4,4s2.38,2.5,2.38,2.5.58,12.5.58,12.67a9.28,9.28,0,0,1-2.17.08s0-1.08-.08-2-1.45-1.21-1.45-1.21-1.17-6.54-3.17-8.63S34.06.6,25.89.1,13.89.93,8.31,5,1.85,16.84,1.85,16.84c-.37,0-1.46.08-1.75.58s.13,6.79.33,7.38S3.18,26,3.18,26a27.16,27.16,0,0,0,1,2.92c.67,1.67,1.79,4,1.79,4s-2.25,4.71-2,5.33,3.21,4,7.5,6.5,12.17,4.25,19,1.71,12.71-8,12.75-8.37-2.5-6.83-2.5-6.83a5.35,5.35,0,0,0,1-2.21,14.37,14.37,0,0,0,.42-3.46s1.67-.33,2-.87a10.06,10.06,0,0,0,.21-3s3.63.29,4,.21.92-.25,1-.83S47.94,6,47.94,6ZM25.1,1.73A13.07,13.07,0,0,1,25.23,4c-.12,0-1.25.13-1.25.13l-.32-2.38A13.75,13.75,0,0,1,25.1,1.73Zm-5.71.21a10.27,10.27,0,0,1,2-.08,34,34,0,0,1,.13,3.5,5.79,5.79,0,0,1-1.71.13,17.76,17.76,0,0,1-.42-3.56ZM15.6,3s.33,1.5.13,1.58a7,7,0,0,1-1.21.08l-.25-1.17C14.44,3.43,15.6,3,15.6,3ZM3.35,24.48a1.45,1.45,0,0,1-1.12-.12c-.12-.17-.71-5.67-.42-5.92,0,0,1.54-.17,1.58.13A46.62,46.62,0,0,1,3.35,24.48ZM4.85,17a6.08,6.08,0,0,1-1.54,0A17.76,17.76,0,0,1,7,8.84a16.27,16.27,0,0,1,6.25-4.92s.08,1.63.29,1.71a10.22,10.22,0,0,0,3.17-.17c.17-.25-.25-2.92-.12-3a6.35,6.35,0,0,1,1.83-.33,31.52,31.52,0,0,0,.29,4A6.81,6.81,0,0,0,21,6.34a3.18,3.18,0,0,0,1.75-.5c0-.12-.54-4-.42-4a3.1,3.1,0,0,1,.42-.08s.21,3.54.46,3.5,3.17-.12,3.13-.46-.46-3.25-.21-3.21a16.38,16.38,0,0,1,8.71,3.63c3.84,3.26,5.84,10.21,5.74,10.3a6,6,0,0,1-.71.25s-5.46-5.62-10.67-6.46-9.46-1.37-14.92,1.13A34.83,34.83,0,0,0,4.85,17Zm.21,9.08V18.89a39.22,39.22,0,0,1,8.88-6.46c4.17-2,9.58-2.08,13.33-1.46s7.08,3.08,9.42,4.71,2.54,2.21,2.54,2.21a61.34,61.34,0,0,0,.29,6.5,4.09,4.09,0,0,0,.75,1,16,16,0,0,1-1.61,4.5,16.28,16.28,0,0,1-3.83,5,25.65,25.65,0,0,1-3.27,2s-2.83-2.75-3-2.79-.83.46-.71.71,3.13,2.42,2.88,2.58a25.06,25.06,0,0,1-8.58,1.83,18.54,18.54,0,0,1-11.87-4.58A24.12,24.12,0,0,1,5.06,26.1ZM8.35,39.84a10.81,10.81,0,0,1-2.54-2.08,11.41,11.41,0,0,1,1.33-3.21c.22.15,1.33,1.42,2,2a8.47,8.47,0,0,0,1,.79S8.6,39.89,8.35,39.84Zm1.13,1c-.12,0-.62-.08-.5-.25s1.58-3,1.75-3.17.5.13.42.25S9.6,40.89,9.48,40.89Zm1.13,1c-.17-.08-.46-.17-.46-.29s1.58-3.25,1.58-3.25l.42.25a24.09,24.09,0,0,1-1.55,3.34Zm30.45-4.16a1.67,1.67,0,0,1-.46.42,22.39,22.39,0,0,0-1.79-2.92c-.21,0-.67.71-.67.71s1.67,2.46,1.5,2.71a5.54,5.54,0,0,1-1.17.75,15,15,0,0,0-1.42-2.42c-.25-.08-.92.42-.83.63S37.76,40,37.76,40s-.83.75-1,.67-1.21-2.17-1.37-2.17-.67.58-.67.58,1.54,2,1.38,2.17l-.75.58-1.42-2.12s-.62.25-.62.42,1.46,2.38,1.38,2.5-2.46,2-7.75,2.63-8.62.13-11.54-.83-4-1.87-4.08-2A14.32,14.32,0,0,1,12.78,39,17.79,17.79,0,0,0,20.7,41c4.83.21,6.54.13,10.79-2a22.14,22.14,0,0,0,6.5-4.5,10.83,10.83,0,0,1,1.46-1.25S41.14,37.52,41.06,37.68Zm1.38-14.12a1.28,1.28,0,0,1-1.08.13c-.08-.12-.08-6.29,0-6.33s1.08.13,1.13.38A45.22,45.22,0,0,1,42.44,23.56ZM45.66,5.27a1.5,1.5,0,0,1-.68-2,1.48,1.48,0,0,1,.89-.77c1-.36,1.54.42,1.67,1.46A1.3,1.3,0,0,1,46.42,5.4,1.25,1.25,0,0,1,45.66,5.27Zm2.58,15.29a11.88,11.88,0,0,1-3.62.13c-.17-.12,0-.58,0-.58s2.79,0,2.79-.25-.5-8.42-.25-8.62.29.08.42.33a81.8,81.8,0,0,1,.65,9Z"/></g></g></g></svg>